<svg id="Capa_1" enable-background="new 0 0 512 512" height="512" viewBox="0 0 512 512" width="512" xmlns="http://www.w3.org/2000/svg"><g><path d="m320 494.5h-128c-9.286 0-16.312-8.334-14.8-17.47l16-96c1.21-7.23 7.47-12.53 14.8-12.53h96c7.33 0 13.59 5.3 14.8 12.53l16 96c1.51 9.122-5.501 17.47-14.8 17.47z" fill="#8bb9ff"/><path d="m320 494.5h-64v-126h48c7.33 0 13.59 5.3 14.8 12.53l16 96c1.51 9.122-5.501 17.47-14.8 17.47z" fill="#6e75e2"/><path d="m367 479.5c0 8.28-6.72 15-15 15h-192c-8.28 0-15-6.72-15-15s6.72-15 15-15h192c8.28 0 15 6.72 15 15z" fill="#6e75e2"/><path d="m367 479.5c0 8.28-6.72 15-15 15h-96v-30h96c8.28 0 15 6.72 15 15z" fill="#3340d8"/><path d="m497 62.5v291c0 16.57-14.43 30-31 30h-421c-16.57 0-30-13.43-30-30v-291c0-16.57 13.43-30 30-30h421c16.57 0 31 13.43 31 30z" fill="#f6f9f9"/><path d="m497 62.5v291c0 16.57-14.43 30-31 30h-210v-351h210c16.57 0 31 13.43 31 30z" fill="#e2dff4"/><path d="m466 17.5h-421c-24.81 0-45 20.19-45 45v291c0 24.81 20.19 45 45 45h421c24.81 0 46-20.19 46-45v-291c0-24.81-21.19-45-46-45zm16 336c0 8.27-7.73 15-16 15h-421c-8.27 0-15-6.73-15-15v-291c0-8.27 6.73-15 15-15h421c8.27 0 16 6.73 16 15z" fill="#e2dff4"/><path d="m512 62.5v291c0 24.81-21.19 45-46 45h-210v-30h210c8.27 0 16-6.73 16-15v-291c0-8.27-7.73-15-16-15h-210v-30h210c24.81 0 46 20.19 46 45z" fill="#bebcdd"/><path d="m150 325.5c-8.284 0-15-6.716-15-15v-118c0-8.284 6.716-15 15-15s15 6.716 15 15v118c0 8.284-6.716 15-15 15z" fill="#ffe278"/><path d="m80 325.5c-8.284 0-15-6.716-15-15v-150c0-8.284 6.716-15 15-15s15 6.716 15 15v150c0 8.284-6.716 15-15 15z" fill="#ace233"/><path d="m221 325.5c-8.284 0-15-6.716-15-15v-86c0-8.284 6.716-15 15-15s15 6.716 15 15v86c0 8.284-6.716 15-15 15z" fill="#e27a4e"/><path d="m362 325.5c-8.284 0-15-6.716-15-15v-118c0-8.284 6.716-15 15-15s15 6.716 15 15v118c0 8.284-6.716 15-15 15z" fill="#ffb454"/><path d="m432 325.5c-8.284 0-15-6.716-15-15v-118c0-8.284 6.716-15 15-15s15 6.716 15 15v118c0 8.284-6.716 15-15 15z" fill="#ffb454"/><path d="m291 325.5c-8.284 0-15-6.716-15-15v-54c0-8.284 6.716-15 15-15s15 6.716 15 15v54c0 8.284-6.716 15-15 15z" fill="#dc455b"/><path d="m447 120.5c0 8.28-6.72 15-15 15h-66.36l-59.76 52.29c-2.78 2.43-6.31 3.71-9.88 3.71-1.75 0-3.52-.31-5.21-.93l-34.79-12.89-181.21-67.11c-7.77-2.88-11.73-11.51-8.86-19.28 2.88-7.77 11.51-11.73 19.28-8.86l170.79 63.26 36.84 13.64 57.28-50.12c2.74-2.39 6.25-3.71 9.88-3.71h72c8.28 0 15 6.72 15 15z" fill="#8bb9ff"/><path d="m447 120.5c0 8.28-6.72 15-15 15h-66.36l-59.76 52.29c-2.78 2.43-6.31 3.71-9.88 3.71-1.75 0-3.52-.31-5.21-.93l-34.79-12.89v-31.99l36.84 13.64 57.28-50.12c2.74-2.39 6.25-3.71 9.88-3.71h72c8.28 0 15 6.72 15 15z" fill="#6e75e2"/><path d="m447 305.5v15c0 8.28-6.72 15-15 15h-352c-8.28 0-15-6.72-15-15v-15z" fill="#8bb9ff"/><path d="m447 305.5v15c0 8.28-6.72 15-15 15h-176v-30z" fill="#6e75e2"/></g></svg>