<svg id="Capa_1" enable-background="new 0 0 512 512" height="512" viewBox="0 0 512 512" width="512" xmlns="http://www.w3.org/2000/svg"><g><g><g><g><g><g><g><circle cx="256" cy="256" fill="#ffce00" r="256"/></g></g></g></g></g></g><path d="m512 256c0-7.586-.33-15.095-.977-22.513l-126.205-126.206-93.036 137.503-101.899-101.899-78.614 121.716-24.601-24.601-32.5 30 32.574 32.574-23.305 20.417 188.983 188.984c1.191.016 2.385.025 3.58.025 141.385 0 256-114.615 256-256z" fill="#ffa300"/><g><path d="m233.851 345.919-76.885-150.679-66.403 140.566-27.126-12.814 79.448-168.179 26.924-.41 77.028 150.96 89.574-185.645 27.002-.037 94.841 195.187-26.983 13.111-81.303-167.323-89.246 184.965z" fill="#636978"/></g><g><path d="m363.413 119.681-27.002.037-89.574 185.645v40.314l13.885-.056 89.246-184.965 81.303 167.323 26.983-13.111z" fill="#414952"/></g><g><circle cx="351.669" cy="132.901" fill="#fe6a16" r="41.905"/></g><g><circle cx="156.448" cy="168.141" fill="#ff9500" r="41.904"/></g><g><g><path d="m54.168 240h32.5v30h-32.5z" fill="#fff"/></g><g><path d="m415.338 270h-72.174v-30h72.174zm-82.167 0h-72.174v-30h72.174zm-82.168 0h-72.174v-30h72.174zm-82.168 0h-72.174v-30h72.174z" fill="#fff"/></g><g fill="#e9edf5"><path d="m343.164 240h72.174v30h-72.174z"/><path d="m260.997 240h72.174v30h-72.174z"/></g><g><path d="m425.332 240h32.5v30h-32.5z" fill="#e9edf5"/></g></g></g></svg>