<?xml version="1.0" standalone="no"?>
<!DOCTYPE svg PUBLIC "-//W3C//DTD SVG 20010904//EN"
 "http://www.w3.org/TR/2001/REC-SVG-20010904/DTD/svg10.dtd">
<svg version="1.0" xmlns="http://www.w3.org/2000/svg"
 width="700.000000pt" height="700.000000pt" viewBox="0 0 700.000000 700.000000"
 preserveAspectRatio="xMidYMid meet">
<metadata>
Created by potrace 1.14, written by Peter Selinger 2001-2017
</metadata>
<g transform="translate(0.000000,700.000000) scale(0.100000,-0.100000)"
fill="#000000" stroke="none">
<path d="M310 6984 c-151 -41 -268 -165 -300 -319 -7 -34 -9 -1059 -8 -3195
l3 -3145 23 -58 c47 -114 156 -215 269 -248 41 -12 527 -14 3213 -14 l3165 0
58 23 c114 47 215 156 248 269 21 72 21 6334 0 6406 -33 113 -134 222 -248
269 l-58 23 -3155 2 c-2754 2 -3162 0 -3210 -13z m2322 -861 l3 -438 216 -3
217 -2 3 -1428 c2 -785 2 -1457 1 -1494 l-4 -68 -219 0 -219 0 0 -470 0 -470
-215 0 -215 0 0 470 0 470 -217 2 -218 3 -3 1492 -2 1493 217 2 218 3 3 438 2
437 215 0 215 0 2 -437z m2178 -1098 l0 -655 220 0 220 0 0 -983 c0 -541 3
-1018 6 -1060 l7 -77 -220 0 -220 0 -6 -212 c-4 -116 -7 -325 -7 -465 l0 -253
-210 0 -210 0 0 323 c0 177 -3 386 -7 463 l-6 142 -208 4 c-114 2 -211 7 -216
11 -9 9 -9 121 -5 1309 l2 798 218 2 217 3 3 653 2 652 210 0 210 0 0 -655z"/>
</g>
</svg>
