<svg xmlns="http://www.w3.org/2000/svg" width="295" height="84" viewBox="0 0 295 84">
  <defs>
    <style>
      .cls-1 {
        fill: #fff;
      }

      .cls-1, .cls-2, .cls-3, .cls-4, .cls-5, .cls-6 {
        fill-rule: evenodd;
      }

      .cls-2, .cls-3 {
        fill: #4da39a;
      }

      .cls-3 {
        stroke: #4da39a;
      }

      .cls-3, .cls-5 {
        stroke-width: 1px;
      }

      .cls-4, .cls-5 {
        fill: #e16052;
      }

      .cls-5 {
        stroke: #e16052;
      }

      .cls-6 {
        fill: none;
        stroke: #fff;
        stroke-width: 5px;
      }
    </style>
  </defs>
  <path id="T_RNSY" data-name="T       RNSY" class="cls-1" d="M40.256,21.848V16.664H0v5.185H17.07V67.5h6.265V21.848H40.256ZM130.973,67.5h6.336V44.818h11.665L163.159,67.5h6.985L155.887,44.746a12.325,12.325,0,0,0,8.064-3.384,13.478,13.478,0,0,0,4.105-10.3V30.489a13.382,13.382,0,0,0-4.105-10.3c-3.24-3.24-7.416-3.528-11.809-3.528H130.973V67.5Zm6.336-45.8H154.3c2.736,0,4.9.576,6.48,2.376,0.864,1.008.864,1.584,0.864,3.744v5.76c0,2.16,0,2.736-.864,3.744-1.584,1.8-3.744,2.376-6.48,2.376H137.309v-18Zm36.936,45.8h6.336V26.6l23.33,40.9h7.417V16.664h-6.409V57.707L181.661,16.664h-7.416V67.5Zm60.769,1.368c10.369,0,20.162-6.625,20.162-16.633,0-8.281-3.6-10.729-10.585-11.881l-16.634-2.736c-3.528-.576-4.536-1.512-4.536-3.672V30.273c0-2.376,0-3.312,1.368-4.9a14.539,14.539,0,0,1,11.305-4.968c2.808,0,3.672.576,14.617,7.7L254.1,25.52a20.729,20.729,0,0,0-18-10.225c-9.793,0-19.082,6.7-19.082,16.705,0,8.209,3.6,10.729,10.585,11.809l16.634,2.664c3.672,0.576,4.536,1.656,4.536,3.888V53.6c0,2.16,0,3.168-1.3,4.608a16.02,16.02,0,0,1-12.457,5.544c-2.88,0-3.456-.432-15.337-8.209L216,58.355C219.677,64.98,227.165,68.868,235.014,68.868ZM270.438,67.5h6.336V46.474l18-29.811h-6.553L274.758,39.13h-1.8L259.493,16.664h-7.057l18,29.811V67.5Z"/>
  <path class="cls-2" d="M66,18.874H80.955V54.126H66V18.874Z"/>
  <path id="Line_1" data-name="Line 1" class="cls-3" d="M72.75,10.5h1.5v51h-1.5v-51Z"/>
  <path class="cls-4" d="M89,34h14.987V59H89V34Z"/>
  <path id="Line_1-2" data-name="Line 1" class="cls-5" d="M95.75,22.5h1.5v51h-1.5v-51Z"/>
  <path class="cls-6" d="M83.25,2.75A39.25,39.25,0,1,1,44,42,39.25,39.25,0,0,1,83.25,2.75Z"/>
</svg>
